<?xml version="1.0" encoding="UTF-8"?>
<!DOCTYPE svg PUBLIC "-//W3C//DTD SVG 1.1//EN" "http://www.w3.org/Graphics/SVG/1.1/DTD/svg11.dtd">
<!-- Creator: CorelDRAW -->
<svg xmlns="http://www.w3.org/2000/svg" xml:space="preserve" width="82.7227mm" height="58.0777mm" version="1.1" style="shape-rendering:geometricPrecision; text-rendering:geometricPrecision; image-rendering:optimizeQuality; fill-rule:evenodd; clip-rule:evenodd"
viewBox="0 0 8272.28 5807.78"
 xmlns:xlink="http://www.w3.org/1999/xlink"
 xmlns:xodm="http://www.corel.com/coreldraw/odm/2003">
 <defs>
  <style type="text/css">
   <![CDATA[
    .fil1 {fill:none}
    .fil0 {fill:#1C7800}
   ]]>
  </style>
   <clipPath id="id0">
    <path d="M429.05 335.11c197.02,-176.32 450.29,-295.84 741.39,-330.97 53.78,-6.47 399.63,-4.64 824.37,0.64 752.48,9.27 1780.76,34.28 1842.73,37.94l2.59 0.22c95.81,27.59 414.71,180.73 796.56,372.04 696.01,348.86 1576.75,808.85 1719.12,884.61 131.59,69.84 244.65,125.67 352.42,178.69 538.55,265.24 969.01,477.34 1306.12,1112.56 59.6,111.44 111.55,231.61 153.48,362.99 41.81,129.65 72.21,266.74 89.13,412.45 66.6,574.33 -89.03,1086.26 -371.5,1490.96 -315.46,452.01 -790.21,768.97 -1289.85,888.17 -318.26,75.88 -614.21,78.79 -890.87,28.78 -275.58,-49.9 -528.2,-151.75 -762.29,-285.93 -118.88,-68.22 -218.57,-145.6 -308.56,-228.16 -82.99,-76.41 -158.86,-159.4 -234.52,-243.89 -23.06,-25.01 -42.79,-48.5 -60.68,-71.57 -18.21,-25.21 -46.02,-59.06 -60.46,-85.03 -10.45,17.35 -21.12,34.27 -34.27,51.52 -276.87,365.57 -619.81,613.34 -987.33,754.1 -356.52,136.44 -735.67,172.01 -1099.51,117.36 -363.31,-54.64 -711.97,-199.6 -1008.24,-423.87 -311.47,-235.82 -565.28,-559.14 -717.78,-957.26 -124.16,-324.3 -180.09,-839.14 -227.73,-1279.83 -14.65,-136.98 -28.77,-266.52 -41.81,-366.22l-35.68 -249.17c-67.25,-461.82 -170.93,-1173.99 -104.54,-1471.34 61.11,-273.86 203.7,-517.32 407.71,-699.79zm2208.2 2932.02c-886.55,207.57 -570.77,1556.48 321.93,1343.09 323.75,-77.38 605.15,-407.39 511.39,-829 -73.4,-329.9 -414.72,-612.17 -833.32,-514.09zm3606.69 0.75c-895.07,216.42 -566.25,1556.16 321.92,1342.66 312.98,-75.33 609.68,-410.62 509.45,-828.57 -78.46,-327.64 -401.46,-617.98 -831.37,-514.09zm-5104.23 -724.89c286.79,-350.92 710.56,-580.69 1171.94,-629.62 478.63,-50.76 909.19,98.83 1236.72,365.25 349.62,284.63 581.88,703.44 630.27,1153.62l0.86 8.73c50.76,495.87 -108.64,942.17 -390.14,1275.95 -281.19,333.24 -685.24,554.71 -1123.77,601.81l-7.87 0.76c-486.82,49.9 -922.55,-99.37 -1252.88,-366.33 -352,-284.42 -584.68,-703.12 -631.67,-1156.96 -50.87,-490.92 98.4,-924.82 366.54,-1253.21zm4822.29 -634.36l1.61 -0.11c477.99,-32.98 908.76,128.68 1232.09,408.03 336.47,290.67 556.76,709.27 592.87,1168.5l0.32 3.99c37.51,493.39 -132.56,934.73 -423.12,1261.29 -289.92,325.91 -700.76,537.79 -1144.68,573.04l-16.06 1.18c-487.9,34.06 -928.59,-134.72 -1255.9,-423.55 -327.1,-288.73 -541.14,-698.39 -575.09,-1145.54l-0.75 -11.43c-34.17,-495.22 135.47,-937.85 427.54,-1265.17 291.53,-327.09 706.14,-538.44 1161.17,-570.23z"/>
   </clipPath>
 </defs>
 <g id="Layer_x0020_1">
  <metadata id="CorelCorpID_0Corel-Layer"/>
  <path class="fil0" d="M429.05 335.11c197.02,-176.32 450.29,-295.84 741.39,-330.97 53.78,-6.47 399.63,-4.64 824.37,0.64 752.48,9.27 1780.76,34.28 1842.73,37.94l2.59 0.22c95.81,27.59 414.71,180.73 796.56,372.04 696.01,348.86 1576.75,808.85 1719.12,884.61 131.59,69.84 244.65,125.67 352.42,178.69 538.55,265.24 969.01,477.34 1306.12,1112.56 59.6,111.44 111.55,231.61 153.48,362.99 41.81,129.65 72.21,266.74 89.13,412.45 66.6,574.33 -89.03,1086.26 -371.5,1490.96 -315.46,452.01 -790.21,768.97 -1289.85,888.17 -318.26,75.88 -614.21,78.79 -890.87,28.78 -275.58,-49.9 -528.2,-151.75 -762.29,-285.93 -118.88,-68.22 -218.57,-145.6 -308.56,-228.16 -82.99,-76.41 -158.86,-159.4 -234.52,-243.89 -23.06,-25.01 -42.79,-48.5 -60.68,-71.57 -18.21,-25.21 -46.02,-59.06 -60.46,-85.03 -10.45,17.35 -21.12,34.27 -34.27,51.52 -276.87,365.57 -619.81,613.34 -987.33,754.1 -356.52,136.44 -735.67,172.01 -1099.51,117.36 -363.31,-54.64 -711.97,-199.6 -1008.24,-423.87 -311.47,-235.82 -565.28,-559.14 -717.78,-957.26 -124.16,-324.3 -180.09,-839.14 -227.73,-1279.83 -14.65,-136.98 -28.77,-266.52 -41.81,-366.22l-35.68 -249.17c-67.25,-461.82 -170.93,-1173.99 -104.54,-1471.34 61.11,-273.86 203.7,-517.32 407.71,-699.79zm2208.2 2932.02c-886.55,207.57 -570.77,1556.48 321.93,1343.09 323.75,-77.38 605.15,-407.39 511.39,-829 -73.4,-329.9 -414.72,-612.17 -833.32,-514.09zm3606.69 0.75c-895.07,216.42 -566.25,1556.16 321.92,1342.66 312.98,-75.33 609.68,-410.62 509.45,-828.57 -78.46,-327.64 -401.46,-617.98 -831.37,-514.09zm-5104.23 -724.89c286.79,-350.92 710.56,-580.69 1171.94,-629.62 478.63,-50.76 909.19,98.83 1236.72,365.25 349.62,284.63 581.88,703.44 630.27,1153.62l0.86 8.73c50.76,495.87 -108.64,942.17 -390.14,1275.95 -281.19,333.24 -685.24,554.71 -1123.77,601.81l-7.87 0.76c-486.82,49.9 -922.55,-99.37 -1252.88,-366.33 -352,-284.42 -584.68,-703.12 -631.67,-1156.96 -50.87,-490.92 98.4,-924.82 366.54,-1253.21zm4822.29 -634.36l1.61 -0.11c477.99,-32.98 908.76,128.68 1232.09,408.03 336.47,290.67 556.76,709.27 592.87,1168.5l0.32 3.99c37.51,493.39 -132.56,934.73 -423.12,1261.29 -289.92,325.91 -700.76,537.79 -1144.68,573.04l-16.06 1.18c-487.9,34.06 -928.59,-134.72 -1255.9,-423.55 -327.1,-288.73 -541.14,-698.39 -575.09,-1145.54l-0.75 -11.43c-34.17,-495.22 135.47,-937.85 427.54,-1265.17 291.53,-327.09 706.14,-538.44 1161.17,-570.23z"/>
  <g style="clip-path:url(#id0)">
  </g>
  <path id="_1" class="fil1" d="M429.05 335.11c197.02,-176.32 450.29,-295.84 741.39,-330.97 53.78,-6.47 399.63,-4.64 824.37,0.64 752.48,9.27 1780.76,34.28 1842.73,37.94l2.59 0.22c95.81,27.59 414.71,180.73 796.56,372.04 696.01,348.86 1576.75,808.85 1719.12,884.61 131.59,69.84 244.65,125.67 352.42,178.69 538.55,265.24 969.01,477.34 1306.12,1112.56 59.6,111.44 111.55,231.61 153.48,362.99 41.81,129.65 72.21,266.74 89.13,412.45 66.6,574.33 -89.03,1086.26 -371.5,1490.96 -315.46,452.01 -790.21,768.97 -1289.85,888.17 -318.26,75.88 -614.21,78.79 -890.87,28.78 -275.58,-49.9 -528.2,-151.75 -762.29,-285.93 -118.88,-68.22 -218.57,-145.6 -308.56,-228.16 -82.99,-76.41 -158.86,-159.4 -234.52,-243.89 -23.06,-25.01 -42.79,-48.5 -60.68,-71.57 -18.21,-25.21 -46.02,-59.06 -60.46,-85.03 -10.45,17.35 -21.12,34.27 -34.27,51.52 -276.87,365.57 -619.81,613.34 -987.33,754.1 -356.52,136.44 -735.67,172.01 -1099.51,117.36 -363.31,-54.64 -711.97,-199.6 -1008.24,-423.87 -311.47,-235.82 -565.28,-559.14 -717.78,-957.26 -124.16,-324.3 -180.09,-839.14 -227.73,-1279.83 -14.65,-136.98 -28.77,-266.52 -41.81,-366.22l-35.68 -249.17c-67.25,-461.82 -170.93,-1173.99 -104.54,-1471.34 61.11,-273.86 203.7,-517.32 407.71,-699.79zm2208.2 2932.02c-886.55,207.57 -570.77,1556.48 321.93,1343.09 323.75,-77.38 605.15,-407.39 511.39,-829 -73.4,-329.9 -414.72,-612.17 -833.32,-514.09zm3606.69 0.75c-895.07,216.42 -566.25,1556.16 321.92,1342.66 312.98,-75.33 609.68,-410.62 509.45,-828.57 -78.46,-327.64 -401.46,-617.98 -831.37,-514.09zm-5104.23 -724.89c286.79,-350.92 710.56,-580.69 1171.94,-629.62 478.63,-50.76 909.19,98.83 1236.72,365.25 349.62,284.63 581.88,703.44 630.27,1153.62l0.86 8.73c50.76,495.87 -108.64,942.17 -390.14,1275.95 -281.19,333.24 -685.24,554.71 -1123.77,601.81l-7.87 0.76c-486.82,49.9 -922.55,-99.37 -1252.88,-366.33 -352,-284.42 -584.68,-703.12 -631.67,-1156.96 -50.87,-490.92 98.4,-924.82 366.54,-1253.21zm4822.29 -634.36l1.61 -0.11c477.99,-32.98 908.76,128.68 1232.09,408.03 336.47,290.67 556.76,709.27 592.87,1168.5l0.32 3.99c37.51,493.39 -132.56,934.73 -423.12,1261.29 -289.92,325.91 -700.76,537.79 -1144.68,573.04l-16.06 1.18c-487.9,34.06 -928.59,-134.72 -1255.9,-423.55 -327.1,-288.73 -541.14,-698.39 -575.09,-1145.54l-0.75 -11.43c-34.17,-495.22 135.47,-937.85 427.54,-1265.17 291.53,-327.09 706.14,-538.44 1161.17,-570.23z"/>
 </g>
</svg>
